<svg width="20" height="20" viewBox="0 0 20 20" fill="none" xmlns="http://www.w3.org/2000/svg">
<path fill-rule="evenodd" clip-rule="evenodd" d="M18 10C18 14.4183 14.4183 18 10 18C5.58172 18 2 14.4183 2 10C2 5.58172 5.58172 2 10 2C14.4183 2 18 5.58172 18 10ZM12 7C12 8.10457 11.1046 9 10 9C8.89543 9 8 8.10457 8 7C8 5.89543 8.89543 5 10 5C11.1046 5 12 5.89543 12 7ZM9.99993 11C7.98239 11 6.24394 12.195 5.45374 13.9157C6.55403 15.192 8.18265 16 9.99998 16C11.8173 16 13.4459 15.1921 14.5462 13.9158C13.756 12.195 12.0175 11 9.99993 11Z" fill="url(#paint0_linear)"/>
<circle cx="10" cy="7" r="3" fill="url(#paint1_linear)"/>
<path d="M15 14.4884C10.5556 19.1395 6.11111 16.2326 5 14.4884C5 13.3256 7.22222 11 10 11C13.2423 11 15 13.907 15 14.4884Z" fill="url(#paint2_linear)"/>
<defs>
<linearGradient id="paint0_linear" x1="1.5" y1="1.5" x2="14" y2="18" gradientUnits="userSpaceOnUse">
<stop stop-color="#0CAE88"/>
<stop offset="1" stop-color="#202065"/>
</linearGradient>
<linearGradient id="paint1_linear" x1="7" y1="5.5" x2="11" y2="11" gradientUnits="userSpaceOnUse">
<stop stop-color="#0CAE88"/>
<stop offset="1" stop-color="#111827"/>
</linearGradient>
<linearGradient id="paint2_linear" x1="6" y1="10" x2="10.7966" y2="17.3053" gradientUnits="userSpaceOnUse">
<stop stop-color="#0CAE88"/>
<stop offset="1" stop-color="#111827"/>
</linearGradient>
</defs>
</svg>
